# xmcd CD database file
#
# Track frame offsets:
#	150
#	12840
#	26698
#	42380
#	57728
#	67588
#	84874
#	96194
#	109476
#	125299
#	139928
#	155393
#	170873
#	185576
#
# Disc length: 2695 seconds
#
# Revision: 0
# Processed by: cddbd v1.5.2PL0 Copyright (c) Steve Scherf et al.
# Submitted via: CDex 1.70beta2
#
DISCID=be0a850e
DTITLE=Jones Country - Jones Country JCY-029
DYEAR=0000
DGENRE=Country
TTITLE0=Walter Brennan/Old Rivers
TTITLE1=Vern Gosdin/This Ain't My First Rodeo
TTITLE2=Willie Nelson/I'd Have To Be Crazy
TTITLE3=Willie Nelson/Living In The Promised Land
TTITLE4=Statler Brothers/Who Am I To Say
TTITLE5=Sylvia/Sweet Yesterday
TTITLE6=Tanya Tucker/Pecos Promenade
TTITLE7=Steve Wariner/By Now
TTITLE8=Willie Nelson/Let It Be Me
TTITLE9=Sylvia/Tumbleweed
TTITLE10=Rosanne Cash/Ain't No Money
TTITLE11=Larry Gatlin and The Gatlin Brothers/Sure Feels Like Love
TTITLE12=Ed Bruce/Love's Found You And Me
TTITLE13=Dolly Parton/Save The Last Dance For Me
EXTD=YEAR: 0000
EXTT0=
EXTT1=
EXTT2=
EXTT3=
EXTT4=
EXTT5=
EXTT6=
EXTT7=
EXTT8=
EXTT9=
EXTT10=
EXTT11=
EXTT12=
EXTT13=
PLAYORDER=
